

    <svg xmlns="http://www.w3.org/2000/svg" version="1.1" xmlns:xlink="http://www.w3.org/1999/xlink" xmlns:svgjs="http://svgjs.com/svgjs" width="20" height="34" x="0" y="0" viewBox="0 0 60 60" xml:space="preserve" class=""><g><g xmlns="http://www.w3.org/2000/svg" id="Page-1" fill="none" fill-rule="evenodd"><g id="002---Colour-Swatches" fill-rule="nonzero"><g id="Icons_copy" transform="translate(1 1)"><path id="Shape" d="m25 43.9999868v14.0000132h-18c-2.50047009-.0007779-4.81064643-1.3352776-6.06054463-3.5009428s-1.24969059-4.8335865.00054463-6.9990572l.03-.05c.60973033-1.043203 1.4819908-1.9085681 2.53-2.51.08-.05.16-.09.24-.14 1.00551345-.5276135 2.12446999-.802204 3.26-.8z" fill="#cfd8dc" data-original="#cfd8dc"></path><path id="Rectangle-path" d="m25 44h11v14h-11z" fill="#f44335" data-original="#f44335"></path><path id="Rectangle-path" d="m36 44h11v14h-11z" fill="#ff5722" data-original="#ff5722"></path><path id="Shape" d="m58 51c0 1.8565154-.7374979 3.6369928-2.0502525 4.9497475-1.3127547 1.3127546-3.0932321 2.0502525-4.9497475 2.0502525h-4v-14h4c1.8565154 0 3.6369928.7374979 4.9497475 2.0502525 1.3127546 1.3127547 2.0502525 3.0932321 2.0502525 4.9497475z" fill="#ff9801" data-original="#ff9801"></path><path id="Shape" d="m55.95 46.05c-1.3102237-1.3166613-3.0925123-2.0547808-4.95-2.05l-3-.0000231c3.8659932.0000231 7 3.1340299 7 7.0000231s-3.1340068 7-7 7h3c2.8313926.0002043 5.3840788-1.7052934 6.4676335-4.3211476 1.0835547-2.6158543.4845656-5.6268576-1.5176335-7.6288524z" fill="#f57c00" data-original="#f57c00"></path><circle id="Oval" cx="7" cy="51" fill="#37474f" r="3" data-original="#37474f"></circle><path id="Shape" d="m45.14 37.06-9.53 5.5-7-12.12c4.52-2.61 7.55-4.36 9.53-5.5z" fill="#02a9f4" data-original="#02a9f4"></path><path id="Shape" d="m35.61 42.56-2.49 1.44h-9.37l-4.66-8.06c2.63-1.52 4.96-2.87 7.03-4.06.88-.5 1.71-.98 2.49-1.44z" fill="#3f51b5" data-original="#3f51b5"></path><path id="Shape" d="m40.75 23.43-.13.08" fill="#a4c400" data-original="#a4c400" class=""></path><path id="Shape" d="m48.61 35.06-3.47 2-7-12.12c1.14-.66 1.94-1.12 2.48-1.43.0080001-.007654.0190075-.0113232.03-.01.03-.02.06-.04.1-.07.2-.11.48-.27.86-.49 2.1690879-1.320847 4.8834251-1.3632792 7.0927396-.1108781s3.5670148 3.6031621 3.547759 6.1426912c-.0192558 2.5395292-1.4124468 4.8694318-3.6404986 6.0881869z" fill="#00bcd4" data-original="#00bcd4" class=""></path><path id="Shape" d="m51.17 25.5c-1.5283347-2.6469382-4.5973427-3.996233-7.581-3.333 2.8276035.6085372 4.9886527 2.8952544 5.4365633 5.7527069s-.9097854 5.6957392-3.4155633 7.1402931l-1.219.7.749 1.3 3.47-2c3.3435847-1.9354967 4.4889227-6.2126184 2.56-9.56z" fill="#00838f" data-original="#00838f"></path><path id="Shape" d="m23.75 44h-16.75c-1.13553001-.002204-2.25448655.2723865-3.26.8 5.5-3.17 10.21-5.89 14.26-8.24.37-.21.73-.42 1.09-.62z" fill="#9e9e9e" data-original="#9e9e9e"></path><path id="Shape" d="m33.06 19.86-5.5 9.53-2.25-1.3-9.87-5.7 5.5-9.53 9.87 5.7z" fill="#ffdc00" data-original="#ffdc00" class=""></path><path id="Rectangle-path" d="m23.684 22.676h11.003v2.599h-11.003z" fill="#fec108" transform="matrix(.5 -.866 .866 .5 -6.169 37.269)" data-original="#fec108" class=""></path><path id="Shape" d="m35.06 16.39-2 3.47-12.12-7 2-3.47c1.2187551-2.22805184 3.5486577-3.62124284 6.0881869-3.64049861 2.5395291-.01925578 4.8902901 1.33844447 6.1426912 3.54775897 1.2524011 2.20931454 1.2099689 4.92365174-.1108781 7.09273964z" fill="#ffeb3a" data-original="#ffeb3a" class=""></path><path id="Shape" d="m32.5 6.83c-1.5064926-.87106813-3.2844299-1.14681965-4.984-.773.6963719.15666181 1.3651972.41724745 1.984.773 1.6084549.9271001 2.7821688 2.45582163 3.2623908 4.2491506.480222 1.7933289.2275221 3.704019-.7023908 5.3108494l-1.251 2.17 2.251 1.3 2-3.47c.9299129-1.6068304 1.1826128-3.5175205.7023908-5.3108494-.480222-1.79332897-1.6539359-3.3220505-3.2623908-4.2491506z" fill="#fdd834" data-original="#fdd834"></path><path id="Shape" d="m27.56 29.39-1.44 2.49c-2.07 1.19-4.4 2.54-7.03 4.06-.36.2-.72.41-1.09.62l-1.49-.86-6.57-3.79 4.06-7.03 1.44-2.49 9.87 5.7z" fill="#a4c400" data-original="#a4c400" class=""></path><path id="Shape" d="m27.56 29.39-1.44 2.49c-2.07 1.19-4.4 2.54-7.03 4.06-.36.2-.72.41-1.09.62l-1.49-.86c2.45-1.42 4.6533333-2.6933333 6.61-3.82l2.19-3.79z" fill="#90ac00" data-original="#90ac00"></path><path id="Shape" d="m18 36.56c-4.05 2.35-8.76 5.07-14.26 8.24-.08.05-.16.09-.24.14-1.0480092.6014319-1.92026967 1.466797-2.53 2.51l8.34-14.45.63-1.09z" fill="#7f8e94" data-original="#7f8e94"></path><path id="Shape" d="m9.31 33-8.34 14.45-.03.05c-.61900262 1.0623168-.94348625 2.2705005-.9400278 3.5v-18z" fill="#607d8b" data-original="#607d8b"></path><path id="Shape" d="m14 22v2.88l-4.06 7.03-.63 1.09h-9.31v-11z" fill="#008a00" data-original="#008a00" class=""></path><path id="Shape" d="m11 22v2.88l-4.06 7.03-.63 1.09h3l.63-1.09 4.06-7.03v-2.88z" fill="#007900" data-original="#007900" class=""></path><path id="Rectangle-path" d="m0 11h14v11h-14z" fill="#60a917" data-original="#60a917"></path><path id="Rectangle-path" d="m11 11h3v11h-3z" fill="#549414" data-original="#549414"></path><path id="Shape" d="m14 7v4h-14v-4c0-3.86599325 3.13400675-7 7-7 3.8659932 0 7 3.13400675 7 7z" fill="#a4c400" data-original="#a4c400" class=""></path><path id="Shape" d="m7 0c-.50448839.00072471-1.00741674.05604683-1.5.165 3.21221646.70199097 5.5015214 3.54697269 5.5 6.835v4h3v-4c0-3.86599325-3.1340068-7-7-7z" fill="#90ac00" data-original="#90ac00"></path></g><g id="Icons" fill="#000"><path id="Shape" d="m52 44h-14.146l12.256-7.074c2.8021542-1.6202288 4.3518428-4.7693633 3.9260132-7.9780824-.4258296-3.2087192-2.7432549-5.8446484-5.8710132-6.6779176-2.044132-.5533631-4.2247239-.2652585-6.055.8l-.194.112-.3.171-.053.031-.742.428-10.971 6.34 7.075-12.259c1.0636445-1.8369624 1.3530178-4.0215361.8043196-6.0720728-.5486982-2.05053667-1.8904103-3.79865223-3.7293196-4.8589272-3.8287804-2.18477267-8.7028169-.87860583-10.926 2.928l-7.074 12.254v-14.144c0-4.418278-3.581722-8-8-8s-8 3.581722-8 8v44c.00495988 4.4162219 3.58377808 7.9950401 8 8h44c4.418278 0 8-3.581722 8-8s-3.581722-8-8-8zm-50-9h6.578l-6.578 11.4zm12-13h-12v-9h12zm0 2v1.608l-4.267 7.392h-7.733v-9zm14.194 5.018-10.39-6 4.5-7.794 10.389 6zm-1 1.732-.808 1.4-7.378 4.26-6.7-3.866 4.5-7.792zm9.786 11.45-6-10.388 7.794-4.5 6 10.389zm-1.732 1-1.4.806h-8.521l-3.87-6.694 7.793-4.5zm-29.639.951 5.7-9.869 5.7 3.289zm14.115-5.839 3.293 5.688h-13.156zm16.276 7.688v12h-9v-12zm2 0h9v12h-9zm3.766-20.418.189-.109.525-.3.086-.05.553-.319c2.8663312-1.6465807 6.5245235-.6646237 8.181 2.196 1.6540878 2.8705671.6731848 6.5383302-2.193 8.2l-2.6 1.5-6-10.389zm-16.961-14.69c1.2138933-2.10703141 3.5794999-3.27303473 5.9899644-2.95244294 2.4104645.32059178 4.3890695 2.06437524 5.0100356 4.41544294.4117953 1.5320449.1932038 3.1651786-.607 4.535l-1.5 2.6-10.389-6zm-16.805-8.892c3.3123376.00330738 5.9966926 2.68766243 6 6v3h-12v-3c.00330738-3.31233757 2.68766243-5.99669262 6-6zm-6 50c.00330738-3.3123376 2.68766243-5.9966926 6-6h17v12h-17c-3.31233757-.0033074-5.99669262-2.6876624-6-6zm50 6h-3v-12h3c3.3137085 0 6 2.6862915 6 6s-2.6862915 6-6 6z" fill="#000000" data-original="#000000" class=""></path><path id="Shape" d="m8 48c-2.209139 0-4 1.790861-4 4s1.790861 4 4 4 4-1.790861 4-4-1.790861-4-4-4zm0 6c-1.1045695 0-2-.8954305-2-2s.8954305-2 2-2 2 .8954305 2 2-.8954305 2-2 2z" fill="#000000" data-original="#000000" class=""></path></g></g></g></g></svg>